<svg xmlns="http://www.w3.org/2000/svg" width="149" height="32" viewBox="0 0 149 32">
    <g fill="#D9E3ED" fill-rule="evenodd">
        <path d="M13.58 0l13.584 7.872v9.43L13.58 9.431l-5.447 3.155v6.31l13.585 7.87-8.138 4.715L0 23.467V7.872L13.58 0zm13.584 18.11l4.746 2.75v5.5l-4.746 2.75-4.745-2.75v-5.5l4.745-2.75zM45.549 6.194c1.943 0 5.544 2.626 5.544 4.576v9.943c0 1.3-1.632 2.882-3.067 3.644 1.24.623 1.913.99 2.506 1.384.448.284.59.538.42 1.018-.113.367-.676 1.186-1.098 1.186-.337 0-.533-.113-1.04-.48-.846-.537-2.644-1.666-4.7-2.515-1.804-.734-4.054-2.684-4.054-4.237V10.77c0-1.95 3.603-4.576 5.489-4.576zm34.93 0c1.21 0 3.013.932 4.336 1.75a.7.7 0 0 1 .281.932l-.48.932c-.168.311-.618.424-.985.226-1.011-.536-2.392-1.242-3.151-1.242-.845 0-2.73 1.355-2.73 2.345v9.21c0 .96 1.857 2.344 2.73 2.344.845 0 2.7-1.412 2.7-2.345v-3.502h-1.546c-.337 0-.649-.282-.649-.623v-1.214c0-.34.312-.623.649-.623h3.432c.367 0 .903.537.903.877v5.452c0 1.893-3.548 4.576-5.49 4.576-1.885 0-5.516-2.683-5.516-4.576V10.77c0-1.95 3.659-4.576 5.517-4.576zm13.004-.002c1.184 0 3.095.877 4.364 1.555a.733.733 0 0 1 .338.988l-.453.962c-.138.337-.589.45-.981.28-.96-.45-2.564-1.184-3.268-1.184-.817 0-2.729 1.354-2.729 2.286v1.074c0 .819.787 1.299 1.688 1.668l3.744 1.58c1.408.624 2.393 1.724 2.393 3.418v2.008c0 1.666-3.492 4.463-5.348 4.463-1.267 0-3.18-.905-4.672-1.722-.337-.17-.563-.567-.367-1.02l.478-.96c.196-.394.619-.48.985-.281 1.212.62 2.816 1.384 3.576 1.384.845 0 2.618-1.44 2.618-2.261v-1.242c0-.96-.732-1.497-1.748-1.892l-3.488-1.47c-1.35-.565-2.59-1.724-2.59-3.304v-1.84c0-1.834 3.687-4.49 5.46-4.49zm24.378.002c1.942 0 5.543 2.626 5.543 4.576v9.943c0 1.95-3.601 4.576-5.543 4.576-1.888 0-5.49-2.598-5.49-4.576V10.77c0-1.95 3.602-4.576 5.49-4.576zm-61.363.253c.367 0 .619.282.619.62v17.347c0 .34-.252.623-.619.623H54.95a.629.629 0 0 1-.62-.623V7.068c0-.34.283-.621.62-.621h1.55zm76.027 0c2.055 0 4.924 3.362 4.924 5.48 0 1.412-1.378 3.39-2.7 4.21 1.07.564 2.531 2.062 2.531 3.447v4.83c0 .339-.279.622-.618.622h-1.547a.627.627 0 0 1-.619-.623v-4.407c0-.988-1.38-2.485-2.45-2.485h-2.616v6.892c0 .37-.254.623-.649.623h-1.491c-.337 0-.649-.253-.649-.623V7.746c0-.649.762-1.3 1.38-1.3h4.504zm-70.06.001c.45 0 .648.224.872.62l5.685 11.977V7.07c0-.367.256-.621.62-.621h1.437c.364 0 .646.254.646.62v17.347c0 .367-.282.62-.646.62h-1.155c-.422 0-.704-.31-.872-.62l-5.685-11.866v11.866c0 .367-.284.62-.677.62h-1.408c-.337 0-.646-.253-.646-.62V7.069c0-.34.31-.621.646-.621h1.182zm47.935 0c.337 0 .676.253.676.62v1.214c0 .341-.339.623-.676.623h-3.689v15.51c0 .366-.279.62-.644.62h-1.493c-.395 0-.647-.254-.647-.62V8.904h-3.688a.63.63 0 0 1-.646-.623V7.068c0-.367.279-.62.646-.62H110.4zM45.549 8.791c-.875 0-2.703 1.355-2.703 2.345v9.21c0 .987 1.828 2.344 2.703 2.344.928 0 2.758-1.357 2.758-2.345v-9.21c0-.99-1.8-2.344-2.758-2.344zm72.312 0c-.874 0-2.703 1.355-2.703 2.345v9.21c0 .987 1.829 2.344 2.703 2.344.926 0 2.759-1.357 2.759-2.345v-9.21c0-.99-1.803-2.344-2.759-2.344zm14.297.084h-2.728v6.215h2.758c1.154 0 2.503-2.061 2.503-3.164 0-1.073-1.408-3.05-2.533-3.05zM145.342 8.756h-1.105v1.5h1.105c.375 0 .783-.287.783-.732 0-.483-.408-.768-.783-.768zm.712 3.786l-1.12-1.715h-.697v1.715h-.657V8.201h1.762c.73 0 1.461.518 1.461 1.323 0 .964-.855 1.286-1.105 1.286l1.156 1.732h-.8zM145.04 7.2a3.139 3.139 0 0 0-3.15 3.162c0 1.734 1.407 3.164 3.15 3.164 1.745 0 3.15-1.43 3.15-3.164a3.139 3.139 0 0 0-3.15-3.162zm0 6.95c-2.082 0-3.772-1.697-3.772-3.788a3.77 3.77 0 0 1 3.772-3.787 3.759 3.759 0 0 1 3.774 3.787 3.772 3.772 0 0 1-3.774 3.789z"/>
    </g>
</svg>
